<svg width="350" height="350" viewBox="0 0 350 350" fill="none" xmlns="http://www.w3.org/2000/svg">
<rect x="5" y="5" width="340" height="340" rx="170" fill="black" stroke="#22C55E" stroke-width="10"/>
<path d="M214.474 133.2L261.862 121.001L248.82 167.877L239.398 158.359L235.903 154.828L232.35 158.301L166.415 222.749L166.411 222.753C164.094 225.023 160.366 225.078 157.976 222.867L157.975 222.866L131.156 198.06L127.726 194.888L124.329 198.095L92.2929 228.331C92.292 228.332 92.2911 228.333 92.2902 228.334L214.474 133.2ZM214.474 133.2L223.831 142.652L227.37 146.227L223.773 149.744L165.408 206.813L162.007 210.138L158.516 206.908L131.834 182.219L131.832 182.217C129.479 180.037 125.808 180.057 123.481 182.258L123.477 182.262L83.8845 219.635L214.474 133.2Z" fill="#22C55E" stroke="#22C55E" stroke-width="10"/>
</svg>
